<svg width="439" height="78" viewBox="0 0 439 78" fill="none" xmlns="http://www.w3.org/2000/svg">
<path d="M126.064 10.0703C129.04 10.0703 131.475 10.522 133.369 11.4253C135.308 12.2834 137.021 13.2997 138.509 14.474C139.411 15.1515 140.088 15.2418 140.539 14.745C141.035 14.203 141.373 12.9609 141.553 11.0188H143.109C143.019 12.6899 142.951 14.7224 142.906 17.1162C142.861 19.51 142.838 22.6716 142.838 26.6011H141.283C140.967 24.6589 140.674 23.1233 140.403 21.9941C140.133 20.8198 139.795 19.8262 139.389 19.0132C139.028 18.2002 138.532 17.3872 137.901 16.5742C136.503 14.7224 134.744 13.39 132.625 12.577C130.506 11.7189 128.274 11.2898 125.929 11.2898C123.72 11.2898 121.713 11.8544 119.91 12.9835C118.151 14.0675 116.618 15.6483 115.31 17.726C114.048 19.8036 113.056 22.3103 112.334 25.2461C111.658 28.1819 111.32 31.479 111.32 35.1375C111.32 38.9314 111.703 42.2963 112.47 45.2321C113.236 48.1227 114.296 50.5617 115.649 52.549C117.046 54.5363 118.67 56.0493 120.518 57.0882C122.412 58.0818 124.441 58.5786 126.606 58.5786C128.635 58.5786 130.754 58.1721 132.963 57.3591C135.173 56.5462 136.909 55.2363 138.171 53.4297C139.163 52.1199 139.84 50.6972 140.2 49.1615C140.606 47.6259 140.967 45.4805 141.283 42.7254H142.838C142.838 46.8355 142.861 50.1552 142.906 52.6845C142.951 55.1686 143.019 57.2688 143.109 58.9851H141.553C141.373 57.043 141.057 55.8235 140.606 55.3267C140.2 54.8298 139.501 54.8976 138.509 55.5299C136.841 56.7042 135.06 57.7431 133.166 58.6464C131.317 59.5045 128.928 59.9336 125.997 59.9336C121.713 59.9336 117.948 58.9625 114.702 57.0204C111.5 55.0783 108.998 52.278 107.194 48.6195C105.435 44.9611 104.556 40.5574 104.556 35.4085C104.556 30.3499 105.481 25.9236 107.329 22.1296C109.178 18.3357 111.703 15.3773 114.905 13.2545C118.151 11.1317 121.871 10.0703 126.064 10.0703Z" fill="#1457C5"/>
<path d="M166.07 23.1459C168.955 23.1459 171.548 23.7782 173.848 25.0429C176.147 26.3075 177.973 28.2948 179.326 31.0048C180.724 33.7147 181.423 37.2377 181.423 41.5736C181.423 45.9096 180.724 49.4325 179.326 52.1425C177.973 54.8073 176.147 56.772 173.848 58.0366C171.548 59.3013 168.955 59.9336 166.07 59.9336C163.229 59.9336 160.636 59.3013 158.291 58.0366C155.992 56.772 154.143 54.8073 152.745 52.1425C151.393 49.4325 150.716 45.9096 150.716 41.5736C150.716 37.2377 151.393 33.7147 152.745 31.0048C154.143 28.2948 155.992 26.3075 158.291 25.0429C160.636 23.7782 163.229 23.1459 166.07 23.1459ZM166.07 24.5009C163.499 24.5009 161.38 25.8333 159.712 28.4981C158.088 31.1628 157.277 35.5214 157.277 41.5736C157.277 47.6259 158.088 51.9844 159.712 54.6492C161.38 57.2688 163.499 58.5786 166.07 58.5786C168.64 58.5786 170.736 57.2688 172.36 54.6492C174.028 51.9844 174.862 47.6259 174.862 41.5736C174.862 35.5214 174.028 31.1628 172.36 28.4981C170.736 25.8333 168.64 24.5009 166.07 24.5009Z" fill="#1457C5"/>
<path d="M198.998 71.7219C196.608 71.7219 194.354 71.4735 192.235 70.9767C190.115 70.4799 188.402 69.6895 187.094 68.6055C185.832 67.5667 185.2 66.2343 185.2 64.6083C185.2 63.0275 185.832 61.6725 187.094 60.5434C188.357 59.4142 190.07 58.556 192.235 57.9689L192.64 59.0529C191.648 59.369 190.859 60.0014 190.273 60.9498C189.687 61.8983 189.394 62.9597 189.394 64.1341C189.394 66.2117 190.341 67.7925 192.235 68.8765C194.173 70.0056 196.676 70.5702 199.742 70.5702C201.771 70.5702 203.755 70.2992 205.694 69.7572C207.633 69.2604 209.234 68.4022 210.496 67.1828C211.759 65.9633 212.39 64.3599 212.39 62.3726C212.39 60.8821 211.849 59.6626 210.767 58.7141C209.73 57.7205 207.656 57.2236 204.544 57.2236H199.539C198.096 57.2236 196.699 57.1107 195.346 56.8849C193.993 56.6591 192.888 56.1848 192.032 55.4622C191.175 54.7395 190.747 53.6329 190.747 52.1425C190.747 50.6068 191.378 49.1389 192.64 47.7388C193.903 46.2935 196.225 44.8256 199.607 43.3351L200.419 43.9448C198.885 44.7578 197.555 45.5934 196.428 46.4516C195.301 47.2645 194.737 48.2356 194.737 49.3648C194.737 50.8101 195.819 51.5327 197.984 51.5327H206.438C208.332 51.5327 210.068 51.8037 211.646 52.3457C213.269 52.8877 214.577 53.7459 215.569 54.9202C216.561 56.0945 217.057 57.6301 217.057 59.5271C217.057 61.6499 216.381 63.6372 215.028 65.489C213.675 67.3408 211.646 68.8313 208.941 69.9605C206.28 71.1348 202.966 71.7219 198.998 71.7219ZM199.336 44.5546C197.127 44.5546 195.12 44.1932 193.317 43.4706C191.513 42.7028 190.093 41.5285 189.056 39.9476C188.019 38.3668 187.5 36.3344 187.5 33.8502C187.5 31.3661 188.019 29.3336 189.056 27.7528C190.093 26.172 191.513 25.0203 193.317 24.2976C195.12 23.5298 197.127 23.1459 199.336 23.1459C201.591 23.1459 203.597 23.5298 205.356 24.2976C207.16 25.0203 208.58 26.172 209.617 27.7528C210.654 29.3336 211.173 31.3661 211.173 33.8502C211.173 36.3344 210.654 38.3668 209.617 39.9476C208.58 41.5285 207.16 42.7028 205.356 43.4706C203.597 44.1932 201.591 44.5546 199.336 44.5546ZM199.336 43.3351C201.05 43.3351 202.38 42.6576 203.327 41.3026C204.319 39.9476 204.815 37.4635 204.815 33.8502C204.815 30.2369 204.319 27.7528 203.327 26.3978C202.38 25.0429 201.05 24.3654 199.336 24.3654C197.668 24.3654 196.338 25.0429 195.346 26.3978C194.354 27.7528 193.858 30.2369 193.858 33.8502C193.858 37.4635 194.354 39.9476 195.346 41.3026C196.338 42.6576 197.668 43.3351 199.336 43.3351ZM209.076 28.7691L207.858 28.2948C208.49 26.7592 209.572 25.4042 211.105 24.2299C212.638 23.0555 214.239 22.4684 215.907 22.4684C217.08 22.4684 218.026 22.8071 218.748 23.4846C219.469 24.1169 219.83 25.088 219.83 26.3978C219.83 27.798 219.447 28.7916 218.68 29.3788C217.959 29.9208 217.215 30.1918 216.448 30.1918C215.772 30.1918 215.141 29.966 214.554 29.5143C213.968 29.0175 213.63 28.2496 213.54 27.2108C213.45 26.172 213.765 24.8396 214.487 23.2136L215.366 23.4169C213.472 24.1395 212.12 24.9074 211.308 25.7203C210.496 26.4882 209.752 27.5044 209.076 28.7691Z" fill="#1457C5"/>
<path d="M245.012 23.1459C246.726 23.1459 248.146 23.3717 249.273 23.8234C250.446 24.275 251.415 24.9074 252.182 25.7203C253.038 26.6237 253.647 27.7528 254.008 29.1078C254.369 30.4628 254.549 32.292 254.549 34.5955V52.6845C254.549 54.5814 254.932 55.8687 255.699 56.5462C256.51 57.2236 257.841 57.5624 259.689 57.5624V58.9851C258.923 58.94 257.75 58.8948 256.172 58.8496C254.594 58.7593 253.061 58.7141 251.573 58.7141C250.085 58.7141 248.62 58.7593 247.177 58.8496C245.779 58.8948 244.719 58.94 243.998 58.9851V57.5624C245.621 57.5624 246.771 57.2236 247.447 56.5462C248.124 55.8687 248.462 54.5814 248.462 52.6845V33.105C248.462 31.7048 248.349 30.4176 248.124 29.2433C247.898 28.069 247.38 27.1205 246.568 26.3978C245.801 25.6752 244.606 25.3139 242.983 25.3139C241.089 25.3139 239.421 25.8558 237.978 26.9398C236.58 28.0238 235.476 29.5143 234.664 31.4113C233.897 33.2631 233.514 35.3407 233.514 37.6442V52.6845C233.514 54.5814 233.852 55.8687 234.529 56.5462C235.205 57.2236 236.355 57.5624 237.978 57.5624V58.9851C237.257 58.94 236.174 58.8948 234.732 58.8496C233.334 58.7593 231.891 58.7141 230.403 58.7141C228.915 58.7141 227.382 58.7593 225.804 58.8496C224.225 58.8948 223.053 58.94 222.287 58.9851V57.5624C224.135 57.5624 225.443 57.2236 226.209 56.5462C227.021 55.8687 227.427 54.5814 227.427 52.6845V31.479C227.427 29.4465 227.066 27.9561 226.345 27.0076C225.623 26.0139 224.271 25.5171 222.287 25.5171V24.0944C223.729 24.2299 225.127 24.2976 226.48 24.2976C227.788 24.2976 229.028 24.2299 230.2 24.0944C231.417 23.9137 232.522 23.6653 233.514 23.3491V31.3435C234.687 28.2722 236.31 26.1494 238.384 24.9751C240.503 23.7556 242.713 23.1459 245.012 23.1459Z" fill="#1457C5"/>
<path d="M270.354 7.1571C271.526 7.1571 272.541 7.58618 273.398 8.44434C274.254 9.30249 274.683 10.3187 274.683 11.493C274.683 12.6674 274.254 13.6836 273.398 14.5418C272.541 15.3999 271.526 15.829 270.354 15.829C269.182 15.829 268.167 15.3999 267.31 14.5418C266.454 13.6836 266.025 12.6674 266.025 11.493C266.025 10.3187 266.454 9.30249 267.31 8.44434C268.167 7.58618 269.182 7.1571 270.354 7.1571ZM273.871 23.3491V52.6845C273.871 54.5814 274.254 55.8687 275.021 56.5462C275.833 57.2236 277.163 57.5624 279.011 57.5624V58.9851C278.245 58.94 277.073 58.8948 275.494 58.8496C273.961 58.7593 272.406 58.7141 270.828 58.7141C269.294 58.7141 267.739 58.7593 266.161 58.8496C264.582 58.8948 263.41 58.94 262.644 58.9851V57.5624C264.492 57.5624 265.8 57.2236 266.566 56.5462C267.378 55.8687 267.784 54.5814 267.784 52.6845V31.479C267.784 29.4465 267.423 27.9561 266.702 27.0076C265.98 26.0139 264.628 25.5171 262.644 25.5171V24.0944C264.086 24.2299 265.484 24.2976 266.837 24.2976C268.145 24.2976 269.385 24.2299 270.557 24.0944C271.774 23.9137 272.879 23.6653 273.871 23.3491Z" fill="#1457C5"/>
<path d="M304.779 23.1459C306.357 23.1459 307.732 23.3717 308.904 23.8234C310.077 24.275 311.046 24.9074 311.813 25.7203C312.67 26.6237 313.256 27.798 313.571 29.2433C313.887 30.6886 314.045 32.4727 314.045 34.5955V52.6845C314.045 54.5814 314.428 55.8687 315.195 56.5462C316.006 57.2236 317.336 57.5624 319.185 57.5624V58.9851C318.419 58.94 317.246 58.8948 315.668 58.8496C314.09 58.7593 312.557 58.7141 311.069 58.7141C309.581 58.7141 308.115 58.7593 306.672 58.8496C305.275 58.8948 304.215 58.94 303.494 58.9851V57.5624C305.117 57.5624 306.267 57.2236 306.943 56.5462C307.619 55.8687 307.958 54.5814 307.958 52.6845V33.105C307.958 31.7048 307.867 30.4176 307.687 29.2433C307.507 28.069 307.056 27.1205 306.334 26.3978C305.613 25.6752 304.44 25.3139 302.817 25.3139C301.059 25.3139 299.48 25.8558 298.083 26.9398C296.73 28.0238 295.648 29.5143 294.836 31.4113C294.07 33.2631 293.686 35.3407 293.686 37.6442V52.6845C293.686 54.5814 294.025 55.8687 294.701 56.5462C295.377 57.2236 296.527 57.5624 298.15 57.5624V58.9851C297.429 58.94 296.347 58.8948 294.904 58.8496C293.506 58.7593 292.063 58.7141 290.575 58.7141C289.087 58.7141 287.554 58.7593 285.976 58.8496C284.398 58.8948 283.225 58.94 282.459 58.9851V57.5624C284.308 57.5624 285.615 57.2236 286.382 56.5462C287.193 55.8687 287.599 54.5814 287.599 52.6845V31.479C287.599 29.4465 287.238 27.9561 286.517 27.0076C285.796 26.0139 284.443 25.5171 282.459 25.5171V24.0944C283.902 24.2299 285.299 24.2976 286.652 24.2976C287.96 24.2976 289.2 24.2299 290.372 24.0944C291.59 23.9137 292.694 23.6653 293.686 23.3491V31.3435C294.859 28.4077 296.459 26.3075 298.488 25.0429C300.518 23.7782 302.614 23.1459 304.779 23.1459ZM325.137 23.1459C326.715 23.1459 328.09 23.3717 329.263 23.8234C330.435 24.275 331.405 24.9074 332.171 25.7203C333.028 26.6237 333.614 27.798 333.93 29.2433C334.245 30.6886 334.403 32.4727 334.403 34.5955V52.6845C334.403 54.5814 334.786 55.8687 335.553 56.5462C336.365 57.2236 337.695 57.5624 339.544 57.5624V58.9851C338.777 58.94 337.605 58.8948 336.026 58.8496C334.448 58.7593 332.915 58.7141 331.427 58.7141C329.939 58.7141 328.474 58.7593 327.031 58.8496C325.633 58.8948 324.573 58.94 323.852 58.9851V57.5624C325.475 57.5624 326.625 57.2236 327.301 56.5462C327.978 55.8687 328.316 54.5814 328.316 52.6845V33.105C328.316 31.7048 328.226 30.4176 328.045 29.2433C327.865 28.069 327.414 27.1205 326.693 26.3978C325.971 25.6752 324.799 25.3139 323.176 25.3139C321.417 25.3139 319.839 25.8558 318.441 26.9398C317.088 28.0238 316.006 29.4917 315.195 31.3435C314.428 33.1953 314.045 35.273 314.045 37.5764L313.842 31.2758C315.059 28.1593 316.705 26.0365 318.779 24.9074C320.853 23.733 322.973 23.1459 325.137 23.1459Z" fill="#1457C5"/>
<path d="M350.209 7.1571C351.382 7.1571 352.396 7.58618 353.253 8.44434C354.11 9.30249 354.538 10.3187 354.538 11.493C354.538 12.6674 354.11 13.6836 353.253 14.5418C352.396 15.3999 351.382 15.829 350.209 15.829C349.037 15.829 348.022 15.3999 347.166 14.5418C346.309 13.6836 345.881 12.6674 345.881 11.493C345.881 10.3187 346.309 9.30249 347.166 8.44434C348.022 7.58618 349.037 7.1571 350.209 7.1571ZM353.726 23.3491V52.6845C353.726 54.5814 354.11 55.8687 354.876 56.5462C355.688 57.2236 357.018 57.5624 358.867 57.5624V58.9851C358.1 58.94 356.928 58.8948 355.35 58.8496C353.817 58.7593 352.261 58.7141 350.683 58.7141C349.15 58.7141 347.594 58.7593 346.016 58.8496C344.438 58.8948 343.265 58.94 342.499 58.9851V57.5624C344.348 57.5624 345.655 57.2236 346.422 56.5462C347.233 55.8687 347.639 54.5814 347.639 52.6845V31.479C347.639 29.4465 347.278 27.9561 346.557 27.0076C345.836 26.0139 344.483 25.5171 342.499 25.5171V24.0944C343.942 24.2299 345.34 24.2976 346.692 24.2976C348 24.2976 349.24 24.2299 350.412 24.0944C351.63 23.9137 352.734 23.6653 353.726 23.3491Z" fill="#1457C5"/>
<path d="M385.04 23.1459C386.753 23.1459 388.174 23.3717 389.301 23.8234C390.473 24.275 391.443 24.9074 392.209 25.7203C393.066 26.6237 393.675 27.7528 394.035 29.1078C394.396 30.4628 394.576 32.292 394.576 34.5955V52.6845C394.576 54.5814 394.96 55.8687 395.726 56.5462C396.538 57.2236 397.868 57.5624 399.717 57.5624V58.9851C398.95 58.94 397.778 58.8948 396.2 58.8496C394.622 58.7593 393.088 58.7141 391.6 58.7141C390.112 58.7141 388.647 58.7593 387.204 58.8496C385.806 58.8948 384.747 58.94 384.025 58.9851V57.5624C385.648 57.5624 386.798 57.2236 387.475 56.5462C388.151 55.8687 388.489 54.5814 388.489 52.6845V33.105C388.489 31.7048 388.376 30.4176 388.151 29.2433C387.926 28.069 387.407 27.1205 386.595 26.3978C385.829 25.6752 384.634 25.3139 383.011 25.3139C381.117 25.3139 379.449 25.8558 378.006 26.9398C376.608 28.0238 375.503 29.5143 374.691 31.4113C373.925 33.2631 373.542 35.3407 373.542 37.6442V52.6845C373.542 54.5814 373.88 55.8687 374.556 56.5462C375.233 57.2236 376.382 57.5624 378.006 57.5624V58.9851C377.284 58.94 376.202 58.8948 374.759 58.8496C373.361 58.7593 371.918 58.7141 370.43 58.7141C368.942 58.7141 367.409 58.7593 365.831 58.8496C364.253 58.8948 363.081 58.94 362.314 58.9851V57.5624C364.163 57.5624 365.47 57.2236 366.237 56.5462C367.049 55.8687 367.454 54.5814 367.454 52.6845V31.479C367.454 29.4465 367.094 27.9561 366.372 27.0076C365.651 26.0139 364.298 25.5171 362.314 25.5171V24.0944C363.757 24.2299 365.155 24.2976 366.508 24.2976C367.815 24.2976 369.055 24.2299 370.228 24.0944C371.445 23.9137 372.55 23.6653 373.542 23.3491V31.3435C374.714 28.2722 376.337 26.1494 378.411 24.9751C380.531 23.7556 382.74 23.1459 385.04 23.1459Z" fill="#1457C5"/>
<path d="M433.445 5.86987V51.6005C433.445 53.6329 433.806 55.146 434.528 56.1397C435.294 57.0882 436.647 57.5624 438.586 57.5624V58.9851C437.188 58.8496 435.79 58.7819 434.392 58.7819C433.085 58.7819 431.822 58.8496 430.605 58.9851C429.432 59.1206 428.35 59.369 427.358 59.7304V13.9998C427.358 11.9673 426.997 10.4768 426.276 9.52832C425.555 8.53467 424.202 8.03784 422.218 8.03784V6.61511C423.661 6.75061 425.059 6.81836 426.411 6.81836C427.719 6.81836 428.959 6.75061 430.131 6.61511C431.349 6.43445 432.453 6.18604 433.445 5.86987ZM419.242 23.1459C421.226 23.1459 423.075 23.6201 424.788 24.5686C426.547 25.5171 427.719 27.1431 428.305 29.4465L427.426 30.124C426.795 28.2271 425.803 26.8495 424.45 25.9913C423.142 25.1332 421.587 24.7041 419.783 24.7041C417.123 24.7041 414.891 26.0817 413.087 28.8368C411.328 31.5919 410.472 35.8375 410.517 41.5736C410.517 45.2321 410.855 48.2808 411.531 50.7197C412.253 53.1135 413.29 54.9202 414.643 56.1397C416.04 57.314 417.731 57.9011 419.715 57.9011C421.609 57.9011 423.323 57.0882 424.856 55.4622C426.389 53.8362 427.313 51.4424 427.629 48.2808L428.44 49.2293C428.08 52.6619 426.975 55.3041 425.126 57.1559C423.323 59.0077 420.865 59.9336 417.754 59.9336C414.958 59.9336 412.501 59.2561 410.382 57.9011C408.307 56.5462 406.707 54.5137 405.579 51.8037C404.497 49.0938 403.956 45.6837 403.956 41.5736C403.956 37.4635 404.655 34.0535 406.053 31.3435C407.496 28.5884 409.367 26.5333 411.667 25.1784C414.011 23.8234 416.536 23.1459 419.242 23.1459Z" fill="#1457C5"/>
<path d="M21.7367 17.8846L0 38.7959L21.0947 58.0562C14.1243 44.9225 17.9763 38.1523 21.7367 32.9261C26.0657 26.9095 23.5404 20.3915 21.7367 17.8846Z" fill="#1457C5"/>
<path d="M22.3787 59.6154C31.2636 55.7653 35.9246 48.787 37.8576 44.0369C38.0007 43.3645 38.0374 42.7069 38.0074 42.0976C37.9753 41.4452 37.8667 40.8481 37.7304 40.3473C37.603 40.0037 37.4428 39.6888 37.2714 39.4098C36.9415 39.0258 36.6243 38.642 36.3195 38.2585C23.3857 21.981 32.7962 6.15542 39.5296 0L53.7456 13.9408C45.2103 18.8712 41.5237 26.237 40.2157 31.7901C39.6367 35.5554 40.0269 37.4781 40.4375 38.1907C40.4978 38.2702 40.5578 38.3496 40.6173 38.429C54.3357 56.721 45.7757 72.0328 39.6213 77.5L22.3787 59.6154Z" fill="#1457C5"/>
<path d="M79.0592 38.7959L58.1479 19.4438C61.6698 32.9444 59.1262 41.0276 57.4142 43.3817C53.232 51.1592 55.6716 57.4448 57.4142 59.6154L79.0592 38.7959Z" fill="#1457C5"/>
<path d="M40.8136 38.7041C39.126 35.9159 39.6825 33.2011 40.1716 32.1923L37.2367 33.3846L40.1716 40.6301C41.0888 41.1499 42.5012 41.4923 40.8136 38.7041Z" fill="#1457C5"/>
</svg>
